<?xml version="1.0" standalone="no"?>
<!DOCTYPE svg PUBLIC "-//W3C//DTD SVG 20010904//EN"
 "http://www.w3.org/TR/2001/REC-SVG-20010904/DTD/svg10.dtd">
<svg version="1.0" xmlns="http://www.w3.org/2000/svg"
 width="254.000000pt" height="254.000000pt" viewBox="0 0 254.000000 254.000000"
 preserveAspectRatio="xMidYMid meet">
<metadata>
Created by potrace 1.14, written by Peter Selinger 2001-2017
</metadata>
<g transform="translate(0.000000,254.000000) scale(0.100000,-0.100000)"
fill="#000000" stroke="none">
<path d="M1260 1877 c-23 -5 -59 -18 -79 -30 -20 -11 -60 -34 -89 -50 -29 -16
-59 -39 -67 -50 -13 -21 -28 -79 -26 -102 1 -17 9 -69 15 -92 4 -17 0 -23 -13
-23 -10 0 -23 -6 -29 -13 -13 -15 -7 -90 8 -95 5 -2 10 -9 10 -15 0 -6 8 -20
18 -31 11 -12 29 -46 41 -77 27 -67 92 -150 141 -176 32 -18 104 -22 177 -12
18 3 124 115 116 123 -3 3 -2 6 4 6 9 0 31 42 37 70 5 20 30 70 35 70 12 0 44
63 47 93 5 35 -10 57 -38 57 -16 0 -18 3 -10 13 20 24 39 121 37 187 -4 104
-4 103 -20 96 -8 -3 -22 -9 -32 -13 -11 -4 -14 -3 -9 6 5 7 10 24 12 39 l4 27
-124 0 c-68 0 -143 -4 -166 -8z"/>
<path d="M882 1459 c-29 -5 -67 -15 -86 -23 -29 -12 -42 -12 -92 0 -79 19
-195 19 -231 1 -34 -18 -57 -44 -109 -123 -35 -52 -94 -165 -95 -179 0 -2 -9
-26 -20 -51 -24 -57 -42 -134 -55 -234 -5 -43 -8 -54 -42 -158 -25 -79 -26
-85 -9 -97 18 -13 171 -14 218 -1 29 8 53 45 64 96 4 19 14 44 21 55 23 33 17
78 -15 109 l-29 28 49 71 c27 40 53 78 59 84 6 7 11 15 11 18 0 2 9 25 20 50
11 25 17 50 14 55 -8 14 -4 13 41 -7 22 -9 46 -18 54 -20 23 -4 111 -12 148
-12 21 -1 32 -6 32 -16 0 -8 10 -40 22 -72 23 -63 100 -149 155 -173 19 -9 30
-20 28 -30 -5 -28 23 -78 52 -93 41 -21 84 -13 116 23 16 18 26 38 23 45 -3 8
2 19 10 25 8 7 14 9 14 5 0 -4 6 -2 14 4 15 13 76 -4 76 -21 0 -5 7 -25 16
-44 39 -82 174 -54 174 37 0 23 9 34 43 55 80 49 145 138 162 222 6 30 9 32
53 33 78 0 135 10 179 30 50 22 54 23 47 6 -9 -24 80 -185 139 -252 18 -19 17
-21 -12 -47 -36 -32 -41 -62 -19 -114 9 -21 23 -59 32 -84 9 -25 26 -52 38
-60 26 -16 202 -23 230 -9 17 9 17 60 0 83 -16 20 -45 144 -55 236 -3 19 -7
42 -9 50 -3 8 -15 49 -28 90 -19 64 -92 224 -110 240 -3 3 -11 16 -18 30 -21
40 -95 117 -121 125 -35 11 -149 6 -216 -9 -11 -2 -24 -5 -28 -5 -5 -1 -5 -6
-2 -11 4 -6 -16 -1 -44 10 -28 11 -51 18 -51 16 0 -2 -19 1 -42 8 -54 15 -75
11 -84 -17 -3 -12 -20 -40 -37 -61 -17 -22 -31 -46 -32 -55 -1 -9 -8 -29 -14
-46 -7 -16 -13 -32 -14 -35 -6 -19 -109 -125 -135 -139 -32 -17 -163 -17 -193
0 -13 7 -27 12 -31 11 -5 -1 -8 2 -8 7 0 4 -15 24 -32 43 -55 60 -65 74 -79
114 -8 22 -21 53 -31 69 -10 17 -29 51 -43 78 -14 26 -26 46 -28 46 -1 -1 -26
-5 -55 -10z"/>
</g>
</svg>
